<svg version="1.1" id="Layer_1" xmlns:x="ns_extend;" xmlns:i="ns_ai;" xmlns:graph="ns_graphs;" xmlns="http://www.w3.org/2000/svg" xmlns:xlink="http://www.w3.org/1999/xlink" x="0px" y="0px" viewBox="0 0 122.1 65" style="enable-background:new 0 0 122.1 65;" xml:space="preserve">
 <style type="text/css">
  .st0{fill:#FFCA20;}
 </style>
 <metadata>
  <sfw xmlns="ns_sfw;">
   <slices>
   </slices>
   <sliceSourceBounds bottomLeftOrigin="true" height="65" width="122.1" x="640.4" y="-54.9">
   </sliceSourceBounds>
  </sfw>
 </metadata>
 <g>
  <path d="M6.6,51.9c-0.2,2.6-0.7,3.6-3.1,3.6c-1.7,0-1.1,0-2.8,0c-0.4,0-0.6-0.1-0.6-0.6c0-4.5-0.2-9.1,0.3-13.6
		C1,36.2,4.6,33,10,32.3c1.2-0.2,2.3-0.2,3.5-0.2c0.5,0,0.7,0.1,0.7,0.6c0,1.7-0.1,3.4,0,5c0,0.5-0.2,0.7-0.7,0.7c-1,0-2-0.1-3,0.1
		c-2.3,0.4-3.6,1.7-3.7,4c0,0.4-0.1,0.9-0.1,1.3c0,1.6,0,3.3,0,4.9">
  </path>
  <path d="M71.7,52.2c0,2.2-1.6,3.8-3.7,3.8c-2.1,0-3.7-1.5-3.8-3.7c0-4.8,0-9.6,0.1-14.4c0-1.9,1.8-3.4,3.7-3.5c2,0,3.7,1.5,3.7,3.5
		c0.1,2.4,0,4.8,0,7.2">
  </path>
  <path class="st0" d="M58.3,10.6c-1.8-1.5-3.3-2.9-4.8-4.2c-0.4-0.3-0.7-0.1-1.1,0c-1.7,0.4-3.4-0.3-4.2-1.6
		c-0.8-1.3-0.5-2.9,0.7-3.9c1.3-1.1,3.5-1.2,4.9-0.2c1.4,1,1.8,2.7,0.9,4.1c-0.4,0.5-0.2,0.8,0.2,1.1c1.7,1.4,3.4,2.9,5,4.3
		c0.3,0.2,0.6,0.4,0.9,0.5c0.8,0.3,1.3,1,1.1,1.8c-0.1,0.9-0.7,1.5-1.6,1.5c-2.9,0.1-5.8,0-8.7,0c-1.1,0-1.8-0.9-1.7-1.8
		c0-1,0.8-1.7,2-1.7c1.7,0,3.3,0,5,0C57.2,10.6,57.6,10.6,58.3,10.6z">
  </path>
  <path class="st0" d="M77.6,10.8c2.2,0,4.3,0,6.4,0c1.4,0,2.2,0.7,2.2,1.8c0,1-0.9,1.7-2.2,1.7c-2.7,0-5.4,0.1-8.1-0.1
		c-1-0.1-1.6-0.5-1.8-1.4c-0.2-0.9,0.2-1.6,1.1-2c0.3-0.1,0.6-0.3,0.8-0.6c1.6-1.5,3.1-3,4.7-4.5c0.4-0.4,0.5-0.7,0.3-1.2
		c-0.6-1.5-0.1-3,1.3-3.9C83.9-0.1,86,0,87.3,1.2c1.1,1,1.4,2.5,0.6,3.8c-0.8,1.3-2.7,2.2-4.2,1.6c-1.3-0.5-1.9,0-2.6,0.7
		c-1.1,1.1-2.2,2.1-3.3,3.1C77.7,10.5,77.7,10.5,77.6,10.8z">
  </path>
  <path class="st0" d="M72.8,10.4c0,2.4-2.3,4.4-5,4.4c-2.7,0-5-2-5-4.4c0-2.4,2.4-4.5,5.1-4.4C70.7,6,72.9,8,72.8,10.4z">
  </path>
  <path d="M44.7,53c1.9,2,2.6,2.5,4.2,2.9c4.8,1.2,9.2-0.8,11.3-5.2c0.9-1.9,1.3-4,1.4-6c0-0.9,0-1.7,0-2.6c0.1-2.6-0.8-5-2.5-7.1
		c-0.7-0.8-1.4-1.6-2.6-1.7c-3.1-1.5-6.3-1.9-9.7-1.1c-4,0.9-7.4,2.6-8.3,6.8c-0.2,1.1-0.3,2.1-0.3,3.2c0,3.5,0,7-0.1,10.6
		c0,3.7-0.1,7.4-0.1,11.1c0,0.4,0.1,0.6,0.6,0.6c0.9,0,1.8,0,2.8,0c1.8-0.1,3-1.3,3-3 M54.3,48.2C53.5,50,52,51,49.9,50.9
		c-2.2,0-3.6-1.1-4.5-2.9c-0.6-1.2-0.7-2.6-0.7-3.9c0.1-1.5,0.1-2.9,0.7-4.2c0.8-1.9,2.2-2.9,4.4-3c2.1-0.1,3.7,0.8,4.6,2.6
		C55.6,42.5,55.6,45.4,54.3,48.2z">
  </path>
  <path d="M97.7,28.4c0-1.4-1.2-2.6-2.7-2.8c-0.9-0.1-1.8,0-2.8-0.1c-0.7,0-0.9,0.1-0.9,0.8c0.1,1.7,0,3.4,0,5c0,1.3,0,2.4,0,3.6
		c-1.7-1.9-3.2-2.8-6.2-3.1c-2-0.2-3.9,0.3-5.6,1.2c-0.9,0.5-0.8,0.6-1.2,0.9c-1.2,1-2,2.3-2.8,3.7c-0.9,1.8-1.2,3.4-1.3,5.3
		c-0.1,1.8,0,3.6,0.4,5.3c0.8,3.5,2.5,6.4,6.5,7.5c2.6,0.7,5.2,0.9,7.8,0.2c5.7-1.4,8.3-3.5,8.5-9.2C97.8,40.7,97.7,34.5,97.7,28.4z
		 M90.5,48.2c-0.8,1.8-2.1,2.9-4.2,3c-2.1,0.1-3.8-0.7-4.6-2.6c-1.3-2.8-1.4-5.7-0.1-8.6c0.8-1.9,2.4-2.9,4.7-2.8
		c2.1,0.1,3.7,1.2,4.4,3.2c0.5,1.1,0.6,2.3,0.6,3.6C91.2,45.4,91.1,46.9,90.5,48.2z">
  </path>
  <path d="M36.3,38.4c0-2.9-1.4-4.9-4.3-5.9c-3.2-1.1-6.5-1.2-9.8-0.5c-3,0.6-5.1,2.4-6,5.3c-0.2,0.7-0.1,1,0.7,0.9
		c1.1-0.1,2.3,0,3.4,0c1,0,2.1,0.2,2.8-0.9c0.1-0.2,0.5-0.3,0.8-0.4c1.7-0.5,3.4-0.4,5.1,0.2c0.7,0.2,1,0.7,1.1,1.4
		c0.1,0.7-0.3,1.2-0.8,1.5c-0.8,0.5-1.7,0.7-2.7,0.9c-1.9,0.3-3.9,0.4-5.7,1c-1.9,0.6-3.7,1.3-4.7,3c-2.8,4.7,0,10.3,5.7,11.1
		c2,0.3,4,0.1,5.9-0.1c4.5-0.5,7.7-2.9,8.2-6.7c0.3-2.5,0.2-4.4,0.3-6.2C36.3,41.1,36.3,39.8,36.3,38.4z M30.1,45.7
		c0,3.7-2.3,5.8-5.9,5.6c-1.6-0.1-2.6-0.9-2.8-2.2c-0.3-1.5,0.4-2.7,1.8-3.3c1-0.4,2.1-0.6,3.2-0.8c0.7-0.2,1.4-0.3,2.1-0.5
		C30.1,44,30.1,43.9,30.1,45.7z">
  </path>
  <path class="st0" d="M79.6,33.1c-3.3,2.2-4.7,5.4-5.1,9.1c0,0.3-0.1,0.5-0.1,0.8c0-1.6,0-3.3,0-4.9c0-3.7-2.1-5.6-6-5.8
		c-2.2-0.1-4.2,0.3-5.6,2c-0.8,1-1.1,2.1-1.1,3.3c0,2.3,0,4.7-0.1,7c-0.1-2.2-0.1-4.3-0.9-6.4c-0.8-2.1-2-3.9-4.1-5
		c0-3.7,0.1-7.5,0.1-11.2c0-3.2,2.5-5.6,5.9-5.7c3.7,0,7.4,0,11.2,0c3.5,0,5.9,2.6,5.9,5.8C79.5,25.9,79.6,29.5,79.6,33.1z">
  </path>
  <path d="M121.9,41.5c-0.8-5.8-4.8-9.3-10.9-9.4c-5.3-0.1-9.1,2.2-10.7,6.4c-0.7,1.8-1,3.8-0.9,5.6c0,0.4,0,0.7,0,1
		c0.2,2.7,0.5,5.4,2.3,7.6c2.7,3.3,6.6,4.2,10.7,3.8c4.8-0.5,7.8-3.1,9.1-7.5C122.2,46.5,122.3,44,121.9,41.5z M115.7,43.9
		c0,1.6-0.2,3-0.7,4.3c-1.1,2.9-4.1,4-6.8,2.5c-0.9-0.5-1.5-1.3-1.8-2.2c-0.8-2.4-1-4.9-0.4-7.3c0.6-2.6,2.4-4,5-3.9
		c2.2,0.1,4,1.7,4.5,4.2C115.7,42.4,115.8,43.2,115.7,43.9z">
  </path>
  <g>
   <path d="M64.2,58.3h2.1c0.9,0,1.6,0.1,2.1,0.4C68.8,59,69,59.4,69,60c0,0.4-0.1,0.7-0.3,1c-0.2,0.3-0.4,0.4-0.7,0.5v0
			c0.4,0.1,0.7,0.3,0.9,0.5c0.2,0.3,0.3,0.6,0.3,1c0,0.6-0.2,1.1-0.7,1.4c-0.4,0.3-1,0.5-1.8,0.5h-2.5V58.3L64.2,58.3z M65.6,60.9
			h0.8c0.4,0,0.7-0.1,0.8-0.2c0.2-0.1,0.3-0.3,0.3-0.6c0-0.3-0.1-0.4-0.3-0.6c-0.2-0.1-0.5-0.2-0.9-0.2h-0.7L65.6,60.9L65.6,60.9z
			 M65.6,62.1v1.7h0.9c0.4,0,0.7-0.1,0.9-0.2c0.2-0.1,0.3-0.4,0.3-0.7c0-0.6-0.4-0.8-1.2-0.8H65.6z">
   </path>
   <path d="M72.4,65v-6.7h1.4V65H72.4z">
   </path>
   <path d="M82.8,65h-1.6l-1.8-2.8l-0.6,0.4V65h-1.4v-6.7h1.4v3.1l0.6-0.8l1.8-2.3h1.6l-2.3,3L82.8,65z">
   </path>
   <path d="M89.3,65h-3.9v-6.7h3.9v1.2h-2.4v1.5h2.3v1.2h-2.3v1.7h2.4V65z">
   </path>
   <path d="M99.5,65h-1.4v-5.5h-1.8v-1.2h5.1v1.2h-1.8L99.5,65L99.5,65z">
   </path>
   <path d="M108.3,65l-0.5-1.6h-2.4l-0.5,1.6h-1.5l2.4-6.7h1.7l2.4,6.7H108.3z M107.5,62.2c-0.4-1.4-0.7-2.3-0.8-2.5
			c-0.1-0.2-0.1-0.3-0.1-0.4c-0.1,0.4-0.4,1.4-0.9,2.9H107.5z">
   </path>
   <path d="M118,65h-1.6l-1.6-2.5l-1.6,2.5h-1.5l2.2-3.5l-2.1-3.2h1.6l1.4,2.4l1.4-2.4h1.5l-2.1,3.3L118,65z">
   </path>
   <path d="M120.7,65v-6.7h1.4V65H120.7z">
   </path>
  </g>
 </g>
</svg>